<svg id="Capa_1" enable-background="new 0 0 512 512" height="512" viewBox="0 0 512 512" width="512" xmlns="http://www.w3.org/2000/svg"><g><g><g><g><g><path d="m11.044 33.973v444.054c0 14.621 11.852 26.473 26.473 26.473h338.027c14.621 0 26.473-11.852 26.473-26.473v-353.777l-116.75-116.75h-247.75c-14.621 0-26.473 11.852-26.473 26.473z" fill="#eaecf0"/><path d="m309.284 31.517v123.266c0 11.047 8.955 20.003 20.003 20.003h20.027v329.714h26.23c14.621 0 26.473-11.852 26.473-26.473v-353.777z" fill="#d3d7de"/><path d="m285.267 7.5 116.75 116.75h-96.747c-11.047 0-20.003-8.955-20.003-20.003z" fill="#df705d"/></g></g><g><g><circle cx="373.607" cy="377.151" fill="#e5a747" r="127.349"/><path d="m373.607 249.802c-9.035 0-17.848.947-26.352 2.737 57.687 12.139 100.997 63.315 100.997 124.612 0 61.298-43.31 112.473-100.997 124.612 8.503 1.789 17.316 2.737 26.352 2.737 70.333 0 127.349-57.016 127.349-127.349s-57.016-127.349-127.349-127.349z" fill="#c68a37"/><circle cx="373.607" cy="377.151" fill="#eadb55" r="98.37"/><path d="m373.607 278.781c-9.128 0-17.964 1.248-26.352 3.575 41.531 11.52 72.018 49.595 72.018 94.795s-30.487 83.274-72.018 94.795c8.387 2.327 17.223 3.575 26.352 3.575 54.328 0 98.37-44.042 98.37-98.37s-44.042-98.37-98.37-98.37z" fill="#d1bc4a"/></g></g></g></g><g><path d="m210.67 67.374h-151.127c-4.142 0-7.5 3.357-7.5 7.5s3.358 7.5 7.5 7.5h151.127c4.142 0 7.5-3.357 7.5-7.5s-3.358-7.5-7.5-7.5z"/><path d="m210.67 116.75h-151.127c-4.142 0-7.5 3.357-7.5 7.5s3.358 7.5 7.5 7.5h151.127c4.142 0 7.5-3.357 7.5-7.5s-3.358-7.5-7.5-7.5z"/><path d="m380.979 365.58v-36.96c12.745.91 17.479 6.736 21.848 6.736 5.462 0 8.011-6.918 8.011-10.378 0-8.921-17.479-12.744-29.859-13.108v-4.916c0-2.185-2.731-4.188-5.462-4.188-3.095 0-5.28 2.003-5.28 4.188v5.28c-17.296 1.82-34.593 10.924-34.593 33.864 0 23.305 18.207 29.859 34.593 35.686v42.786c-18.571-1.457-23.487-14.201-29.495-14.201-4.551 0-8.375 6.008-8.375 10.378 0 8.921 15.294 21.119 37.87 21.483v5.645c0 2.185 2.185 4.188 5.28 4.188 2.731 0 5.462-2.003 5.462-4.188v-6.19c19.663-2.731 33.136-15.111 33.136-37.506 0-24.762-17.296-32.773-33.136-38.599zm-9.65-3.459c-9.649-3.642-17.479-7.465-17.479-17.843 0-9.468 7.283-14.02 17.479-15.294zm8.558 62.085v-38.416c8.921 3.823 16.021 8.921 16.021 20.391 0 10.378-6.19 16.204-16.021 18.025z"/><path d="m508.456 377.151c0-74.356-60.493-134.85-134.849-134.85s-134.849 60.493-134.849 134.85c0 74.355 60.493 134.849 134.849 134.849h1.937c.609 0 1.213-.019 1.814-.052 72.629-1.994 131.098-61.696 131.098-134.797zm-131.436 119.8c-.038 0-.077.001-.115.002-1.096.029-2.195.047-3.298.047-66.085 0-119.849-53.764-119.849-119.849s53.764-119.85 119.849-119.85 119.849 53.765 119.849 119.85c0 64.944-51.923 117.987-116.436 119.8z"/><path d="m373.607 271.281c-58.377 0-105.87 47.493-105.87 105.87s47.493 105.87 105.87 105.87 105.87-47.493 105.87-105.87-47.493-105.87-105.87-105.87zm0 196.74c-50.106 0-90.87-40.765-90.87-90.87s40.764-90.87 90.87-90.87 90.87 40.765 90.87 90.87-40.764 90.87-90.87 90.87z"/><path d="m281 497h-243.483c-10.462 0-18.973-8.512-18.973-18.974v-444.053c0-10.462 8.511-18.973 18.973-18.973h240.25v89.247c0 15.165 12.337 27.503 27.502 27.503h89.248v85.418c0 4.143 3.358 7.5 7.5 7.5s7.5-3.357 7.5-7.5v-92.918c0-1.989-.79-3.896-2.197-5.304l-116.75-116.75c-1.406-1.406-3.314-2.196-5.303-2.196h-247.75c-18.733 0-33.973 15.24-33.973 33.973v444.054c0 18.733 15.24 33.973 33.973 33.973h243.483c4.142 0 7.5-3.357 7.5-7.5s-3.358-7.5-7.5-7.5zm11.767-392.753v-78.641l91.144 91.144h-78.641c-6.895 0-12.503-5.608-12.503-12.503z"/></g></g></svg>