<svg id="Layer_1" enable-background="new 0 0 512 512" height="512" viewBox="0 0 512 512" width="512" xmlns="http://www.w3.org/2000/svg"><g><path d="m47.5 361h30v54h-30z" fill="#a35418"/><circle cx="62.5" cy="323" fill="#64cc56" r="55"/><path d="m62.5 268c-5.2 0-10.232.722-15 2.07 23.085 6.529 40 27.754 40 52.93s-16.915 46.4-40 52.93c4.768 1.349 9.8 2.07 15 2.07 30.376 0 55-24.624 55-55s-24.624-55-55-55z" fill="#50a645"/><path d="m434.5 361h30v54h-30z" fill="#a35418"/><circle cx="449.5" cy="323" fill="#64cc56" r="55"/><path d="m449.5 268c-5.2 0-10.232.722-15 2.07 23.085 6.529 40 27.754 40 52.93s-16.915 46.4-40 52.93c4.768 1.349 9.8 2.07 15 2.07 30.376 0 55-24.624 55-55s-24.624-55-55-55z" fill="#50a645"/><path d="m406 415h-300v-218.874l150-115.126 150 115.116z" fill="#ffd180"/><path d="m376 173.093v241.907h30v-218.884z" fill="#ffba63"/><path d="m437.132 200.099-171.999-132c-5.387-4.133-12.878-4.133-18.265 0l-171.999 132c-6.572 5.044-7.811 14.46-2.768 21.032 5.044 6.571 14.46 7.81 21.032 2.768l162.867-124.991 162.867 124.992c2.724 2.09 5.935 3.101 9.122 3.101 4.503 0 8.957-2.021 11.911-5.869 5.043-6.572 3.803-15.989-2.768-21.033z" fill="#ff7043"/><path d="m488.5 447h-465c-8.837 0-16-7.163-16-16 0-8.837 7.163-16 16-16h465c8.837 0 16 7.163 16 16 0 8.837-7.163 16-16 16z" fill="#a35418"/><path d="m488.5 415h-30c8.837 0 16 7.163 16 16 0 8.837-7.163 16-16 16h30c8.837 0 16-7.163 16-16 0-8.836-7.163-16-16-16z" fill="#8c4815"/><path d="m149 271h90v144h-90z" fill="#bf6724"/><path d="m209 271h30v144h-30z" fill="#a35418"/><path d="m369 361h-100c-2.209 0-4-1.791-4-4v-22c0-2.209 1.791-4 4-4h100c2.209 0 4 1.791 4 4v22c0 2.209-1.791 4-4 4z" fill="#ff7043"/><path d="m369 331h-30c2.209 0 4 1.791 4 4v22c0 2.209-1.791 4-4 4h30c2.209 0 4-1.791 4-4v-22c0-2.209-1.791-4-4-4z" fill="#ff5722"/><path d="m275 271h88v60h-88z" fill="#b2ebf2"/><path d="m333 271h30v60h-30z" fill="#80deea"/><circle cx="256" cy="188.539" fill="#b2ebf2" r="35"/><g><path d="m488.5 407.499h-16.5v-26.207c23.374-9.054 40-31.762 40-58.295 0-34.463-28.038-62.501-62.5-62.501-13.138 0-25.605 4.038-36 11.39v-42.656l.802.615c3.965 3.043 8.698 4.651 13.688 4.651 7.057-.001 13.566-3.209 17.859-8.803 7.553-9.842 5.691-23.995-4.151-31.549l-60.53-46.455c-3.285-2.523-7.994-1.903-10.516 1.384-2.522 3.286-1.902 7.994 1.383 10.516l60.53 46.455c3.281 2.518 3.902 7.236 1.384 10.516-1.431 1.865-3.604 2.935-5.961 2.935-1.658 0-3.233-.537-4.555-1.551l-162.867-124.994c-2.692-2.067-6.439-2.067-9.132 0l-162.867 124.994c-3.281 2.517-7.999 1.896-10.517-1.383-2.518-3.281-1.896-7.999 1.384-10.517l171.999-132.003c2.688-2.062 6.444-2.063 9.133 0l86.089 66.07c3.286 2.522 7.994 1.903 10.516-1.384 2.522-3.286 1.902-7.994-1.384-10.516l-86.089-66.071c-8.065-6.188-19.331-6.187-27.396.001l-172 132.003c-9.842 7.554-11.704 21.707-4.151 31.55 7.553 9.841 21.705 11.702 31.548 4.15l.801-.615v42.656c-10.395-7.352-22.862-11.39-36-11.39-34.462 0-62.5 28.038-62.5 62.501 0 26.532 16.626 49.241 40 58.295v26.207h-16.5c-12.958 0-23.5 10.542-23.5 23.501s10.542 23.501 23.5 23.501h392.372c4.142 0 7.5-3.358 7.5-7.5s-3.358-7.5-7.5-7.5h-392.372c-4.687 0-8.5-3.813-8.5-8.5s3.813-8.5 8.5-8.5h465c4.687 0 8.5 3.813 8.5 8.5s-3.813 8.5-8.5 8.5h-40.218c-4.142 0-7.5 3.358-7.5 7.5s3.358 7.5 7.5 7.5h40.218c12.958 0 23.5-10.542 23.5-23.501s-10.542-23.5-23.5-23.5zm-39-132.003c26.191 0 47.5 21.309 47.5 47.501s-21.309 47.501-47.5 47.501c-13.97 0-26.951-5.994-36-16.521v-61.96c9.049-10.527 22.031-16.521 36-16.521zm-36 98.613c4.192 2.965 8.724 5.38 13.5 7.216v26.174h-13.5zm-315 0v33.39h-13.5v-26.174c4.776-1.836 9.308-4.251 13.5-7.216zm-83.5-51.112c0-26.192 21.309-47.501 47.5-47.501 13.969 0 26.951 5.994 36 16.521v61.96c-9.049 10.527-22.03 16.521-36 16.521-26.191 0-47.5-21.309-47.5-47.501zm40 84.502v-22.466c2.461.296 4.96.466 7.5.466 2.529 0 5.031-.156 7.5-.449v22.45h-15zm191.5 0v-136.503c0-4.142-3.358-7.5-7.5-7.5h-90c-4.142 0-7.5 3.358-7.5 7.5v88.771c0 4.142 3.358 7.5 7.5 7.5s7.5-3.358 7.5-7.5v-81.271h75v129.003h-75v-15.526c0-4.142-3.358-7.5-7.5-7.5s-7.5 3.358-7.5 7.5v15.526h-28v-189.781l142.5-109.364 142.5 109.363v189.782zm195.5 0v-22.45c2.469.293 4.971.449 7.5.449 2.54 0 5.039-.17 7.5-.466v22.466h-15z"/><path d="m370.5 323.606v-52.611c0-4.142-3.358-7.5-7.5-7.5h-88c-4.142 0-7.5 3.358-7.5 7.5v52.611c-5.633.739-10 5.559-10 11.391v22c0 6.341 5.159 11.5 11.5 11.5h100c6.341 0 11.5-5.159 11.5-11.5v-22c0-5.832-4.367-10.652-10-11.391zm-15-.109h-29v-45.001h29zm-73-45.001h29v45.001h-29zm83 75.002h-93v-15h93z"/><path d="m298.5 188.533c0-23.435-19.065-42.501-42.5-42.501s-42.5 19.066-42.5 42.501 19.065 42.501 42.5 42.501 42.5-19.066 42.5-42.501zm-15.917-7.039h-19.083v-19.414c9.296 2.64 16.602 10.052 19.083 19.414zm-34.083-19.414v19.414h-19.083c2.481-9.362 9.787-16.774 19.083-19.414zm-18.821 34.414h18.821v18.491c-8.989-2.552-16.116-9.566-18.821-18.491zm33.821 18.491v-18.491h18.821c-2.705 8.925-9.832 15.939-18.821 18.491z"/></g></g></svg>