<?xml version="1.0" encoding="iso-8859-1"?>
<!-- Generator: Adobe Illustrator 19.0.0, SVG Export Plug-In . SVG Version: 6.00 Build 0)  -->
<svg version="1.1" id="Capa_1" xmlns="http://www.w3.org/2000/svg" xmlns:xlink="http://www.w3.org/1999/xlink" x="0px" y="0px"
	 viewBox="0 0 512.001 512.001" style="enable-background:new 0 0 512.001 512.001;" xml:space="preserve">
<path style="fill:#FF6D3A;" d="M105.349,158.122l48.958,193.368l294.352,0.515c6.004,0.01,11.252-4.052,12.746-9.867l42.887-166.935
	c2.133-8.302-4.128-16.39-12.7-16.405L105.349,158.122z"/>
<path style="fill:#ED5729;" d="M461.179,342.882c0.079-0.247,0.16-0.492,0.226-0.746l42.887-166.935
	c0.125-0.488,0.216-0.975,0.285-1.459c0.023-0.161,0.031-0.321,0.047-0.482c0.033-0.321,0.063-0.642,0.072-0.96
	c0.006-0.195,0-0.387-0.003-0.58c-0.001-0.095-0.009-0.189-0.012-0.284c-0.005-0.184-0.009-0.368-0.023-0.55
	c-0.016-0.205-0.039-0.408-0.064-0.611c-0.02-0.156-0.048-0.309-0.074-0.463c-0.017-0.102-0.03-0.206-0.049-0.308
	c-0.039-0.208-0.08-0.415-0.129-0.62c-0.026-0.109-0.06-0.215-0.09-0.323c-0.036-0.133-0.071-0.267-0.111-0.398
	c-0.062-0.204-0.12-0.409-0.191-0.61c-0.064-0.18-0.143-0.354-0.214-0.531c-0.022-0.053-0.043-0.108-0.065-0.161
	c-0.081-0.192-0.154-0.388-0.244-0.576c-0.037-0.077-0.083-0.149-0.121-0.225c-0.154-0.307-0.311-0.612-0.488-0.906
	c-0.049-0.081-0.103-0.158-0.154-0.238c-0.184-0.291-0.38-0.574-0.586-0.849c-0.06-0.08-0.117-0.163-0.179-0.242
	c-0.239-0.305-0.495-0.596-0.761-0.879c-0.079-0.084-0.158-0.169-0.239-0.252c-0.272-0.275-0.556-0.539-0.852-0.79
	c-0.083-0.07-0.167-0.138-0.252-0.206c-0.313-0.252-0.634-0.494-0.97-0.718c-0.064-0.043-0.132-0.082-0.197-0.124
	c-0.337-0.215-0.682-0.418-1.04-0.602c-0.043-0.022-0.085-0.048-0.129-0.07c-0.385-0.194-0.785-0.364-1.193-0.52
	c-0.075-0.029-0.149-0.059-0.224-0.086c-0.403-0.145-0.816-0.271-1.238-0.377c-0.082-0.021-0.164-0.04-0.247-0.059
	c-0.431-0.1-0.869-0.181-1.317-0.237c-0.066-0.008-0.133-0.013-0.199-0.02c-0.475-0.052-0.957-0.087-1.449-0.088l-40.246-0.07
	c5.998,2.565,9.732,9.786,8.014,16.475l-37.181,144.723c-2.454,9.553-11.074,16.226-20.938,16.209l-246.934-0.432l-44.959-177.573
	l-3.999-0.007l48.958,193.368l294.352,0.515c0.375,0.001,0.748-0.015,1.116-0.045c0.369-0.031,0.734-0.077,1.094-0.137
	c0.721-0.121,1.424-0.302,2.104-0.537s1.336-0.525,1.963-0.865c0.536-0.291,1.046-0.625,1.536-0.986
	c0.941-0.694,1.794-1.506,2.523-2.429c0.824-1.043,1.488-2.225,1.97-3.507C461.041,343.295,461.112,343.09,461.179,342.882z"/>
<path style="fill:#CCCCCC;" d="M474.745,426.469l-305.313-0.534c-6.683-0.012-12.508-4.553-14.148-11.032L77.793,108.839
	L16.527,84.532C9.022,81.554,5.351,73.055,8.329,65.55c2.978-7.506,11.477-11.176,18.983-8.199l68.213,27.064
	c4.363,1.73,7.63,5.451,8.782,10.001l76.537,302.298l293.953,0.514c8.075,0.014,14.61,6.572,14.595,14.647
	C489.378,419.949,482.82,426.483,474.745,426.469z"/>
<path style="fill:#B3B3B3;" d="M489.392,411.873c0.001-0.351-0.027-0.694-0.051-1.039l-320.64-0.49l-77.024-304.92
	c-1.152-4.55-4.419-8.271-8.782-10.001L14.683,68.359c-2.283-0.905-4.656-1.188-6.939-0.943c-0.749,2.997-0.502,6.063,0.558,8.806
	c0.031,0.079,0.057,0.159,0.089,0.237c0.12,0.294,0.255,0.582,0.393,0.868c0.06,0.123,0.117,0.246,0.18,0.367
	c0.132,0.253,0.274,0.501,0.421,0.746c0.087,0.146,0.175,0.293,0.268,0.436c0.142,0.22,0.291,0.435,0.444,0.647
	c0.116,0.16,0.235,0.317,0.357,0.472c0.15,0.191,0.304,0.379,0.464,0.563c0.144,0.165,0.294,0.325,0.446,0.484
	c0.157,0.165,0.315,0.329,0.481,0.487c0.174,0.166,0.356,0.324,0.539,0.481c0.161,0.139,0.321,0.28,0.489,0.412
	c0.208,0.164,0.426,0.316,0.645,0.469c0.16,0.112,0.316,0.23,0.482,0.336c0.257,0.165,0.526,0.315,0.795,0.465
	c0.142,0.079,0.278,0.166,0.424,0.241c0.422,0.217,0.857,0.418,1.308,0.597l61.265,24.307l77.491,306.064
	c1.64,6.479,7.465,11.02,14.148,11.032l305.313,0.534C482.82,426.483,489.378,419.949,489.392,411.873z"/>
<circle style="fill:#1D4859;" cx="175.97" cy="414.6" r="40.658"/>
<path style="fill:#193D4B;" d="M204.772,385.905c-0.017-0.017-0.035-0.032-0.051-0.049l-57.497,57.497
	c15.854,15.855,41.559,15.885,57.448,0.051C220.578,427.554,220.623,401.811,204.772,385.905z"/>
<path style="fill:#F3E8D6;" d="M175.948,428.631c-7.734-0.014-14.016-6.317-14.002-14.051s6.317-14.015,14.051-14.002
	c7.734,0.014,14.015,6.316,14.002,14.051S183.682,428.644,175.948,428.631z"/>
<circle style="fill:#1D4859;" cx="414.4" cy="415.02" r="40.658"/>
<path style="fill:#193D4B;" d="M443.201,386.322c-0.034-0.034-0.069-0.065-0.103-0.098l-57.497,57.497
	c15.85,15.906,41.594,15.951,57.5,0.101C459.006,427.971,459.051,402.228,443.201,386.322z"/>
<path style="fill:#F3E8D6;" d="M414.376,429.048c-7.734-0.014-14.016-6.317-14.002-14.051s6.317-14.015,14.051-14.002
	s14.015,6.316,14.002,14.051C428.414,422.78,422.111,429.061,414.376,429.048z"/>
<path d="M175.972,393.291c-11.734,0-21.292,9.537-21.313,21.276c-0.01,5.687,2.2,11.041,6.221,15.077
	c4.022,4.036,9.368,6.263,15.055,6.273c0.013,0,0.026,0,0.039,0c5.672,0,11.012-2.209,15.038-6.221
	c4.035-4.021,6.263-9.368,6.273-15.055s-2.199-11.041-6.22-15.077s-9.368-6.264-15.055-6.274
	C175.996,393.291,175.985,393.291,175.972,393.291z M182.712,414.616c-0.003,1.794-0.709,3.484-1.987,4.758
	c-1.275,1.271-2.962,1.97-4.752,1.97c-0.004,0-0.008,0-0.012,0l0,0c-1.794-0.003-3.484-0.709-4.758-1.987
	c-1.274-1.278-1.974-2.971-1.971-4.765c0.007-3.712,3.029-6.729,6.74-6.729c0.004,0,0.008,0,0.012,0
	c1.794,0.003,3.484,0.709,4.758,1.987C182.016,411.129,182.715,412.821,182.712,414.616z"/>
<path d="M414.363,436.334L414.363,436.334c0.013,0,0.026,0,0.038,0c5.673,0,11.013-2.209,15.04-6.221
	c4.035-4.021,6.264-9.368,6.273-15.055c0.02-11.751-9.524-21.329-21.276-21.35c-0.012,0-0.025,0-0.037,0
	c-5.673,0-11.013,2.209-15.04,6.22c-4.035,4.021-6.264,9.368-6.273,15.054c-0.01,5.687,2.198,11.042,6.22,15.077
	C403.33,434.096,408.676,436.324,414.363,436.334z M409.648,410.252c1.276-1.271,2.963-1.971,4.753-1.971c0.004,0,0.008,0,0.011,0
	c3.716,0.007,6.735,3.036,6.729,6.752c-0.003,1.794-0.709,3.484-1.987,4.757c-1.276,1.271-2.963,1.971-4.753,1.971
	c-0.004,0-0.008,0-0.011,0c-1.795-0.003-3.485-0.709-4.759-1.987c-1.273-1.278-1.972-2.97-1.97-4.766
	C407.664,413.215,408.37,411.525,409.648,410.252z"/>
<path d="M448.682,359.29c9.327-0.001,17.459-6.304,19.779-15.341l42.887-166.935c1.581-6.152,0.257-12.561-3.631-17.584
	c-3.889-5.022-9.762-7.909-16.114-7.92l-52.458-0.092c-0.004,0-0.009,0-0.012,0c-4.018,0-7.28,3.254-7.286,7.274
	c-0.007,4.024,3.249,7.292,7.274,7.299l52.458,0.092c1.819,0.003,3.501,0.83,4.615,2.268c1.114,1.439,1.493,3.274,1.041,5.036
	l-42.888,166.936c-0.664,2.588-2.992,4.393-5.665,4.393c-0.003,0-0.007,0-0.01,0l-273.597-0.478l-13.893-54.874L129.809,165.45
	l257.499,0.45c0.004,0,0.009,0,0.012,0c4.018,0,7.28-3.254,7.286-7.274c0.007-4.024-3.249-7.292-7.274-7.299l-261.215-0.457
	L111.37,92.625c-1.721-6.798-6.64-12.401-13.158-14.985L29.997,50.577C18.769,46.125,6.01,51.636,1.556,62.862
	c-2.158,5.439-2.069,11.393,0.251,16.765C4.128,85,8.401,89.147,13.841,91.305l57.803,22.934l68.102,268.981
	c-16.297,18.786-15.563,47.338,2.265,65.228c9.352,9.385,21.656,14.08,33.962,14.08c12.249,0,24.5-4.652,33.842-13.961
	c4.524-4.508,7.947-9.706,10.291-15.255l150.063,0.262c2.367,5.641,5.823,10.828,10.271,15.291
	c9.04,9.071,21.072,14.08,33.878,14.102c0.028,0,0.057,0,0.086,0c12.774,0,24.789-4.964,33.84-13.984
	c4.524-4.508,7.947-9.706,10.291-15.255l16.197,0.028c0.014,0,0.027,0,0.04,0c5.837,0,11.327-2.268,15.463-6.389
	c4.145-4.13,6.433-9.628,6.444-15.48c0.021-12.08-9.789-21.925-21.869-21.946h-0.001l-19.578-0.034
	c-1.908-3.102-4.189-6.038-6.869-8.727c-18.66-18.727-49.078-18.78-67.804-0.119c-2.669,2.659-4.975,5.583-6.917,8.703
	l-156.839-0.274c-1.908-3.102-4.189-6.038-6.869-8.727c-8.122-8.151-18.472-12.761-29.115-13.833l-2.053-8.11l269.881,0.472
	C448.658,359.29,448.669,359.29,448.682,359.29z M474.783,404.513c4.045,0.007,7.33,3.303,7.322,7.348
	c-0.004,1.959-0.769,3.8-2.157,5.183c-1.384,1.379-3.223,2.139-5.177,2.139c-0.004,0-0.009,0-0.013,0l-12.589-0.022
	c0.428-4.92,0.093-9.865-0.991-14.671L474.783,404.513z M381.036,414.684c0.004-0.423,0.013-0.846,0.033-1.266
	c0.01-0.204,0.026-0.408,0.04-0.611c0.02-0.309,0.041-0.617,0.069-0.924c0.029-0.304,0.065-0.608,0.102-0.911
	c0.023-0.192,0.045-0.384,0.072-0.575c0.056-0.399,0.119-0.797,0.19-1.195c0.014-0.082,0.028-0.163,0.043-0.244
	c0.552-2.986,1.514-5.906,2.88-8.68c0.02-0.041,0.033-0.085,0.052-0.126c1.598-3.205,3.717-6.166,6.328-8.768
	c6.503-6.48,15.029-9.718,23.556-9.718c8.565,0,17.131,3.268,23.64,9.8c2.733,2.742,4.881,5.848,6.461,9.159
	c0.132,0.276,0.259,0.554,0.383,0.833c0.102,0.23,0.202,0.461,0.299,0.693c0.095,0.227,0.187,0.456,0.277,0.684
	c0.12,0.307,0.236,0.615,0.347,0.925c0.056,0.155,0.11,0.309,0.164,0.465c0.139,0.408,0.271,0.817,0.393,1.229
	c0.018,0.062,0.038,0.123,0.056,0.185c3.304,11.345,0.481,24.109-8.462,33.021c-6.301,6.278-14.663,9.734-23.555,9.734
	c-0.02,0-0.041,0-0.06,0c-8.914-0.015-17.289-3.501-23.581-9.816c-4.002-4.016-6.852-8.873-8.396-14.168
	c-0.011-0.043-0.017-0.086-0.029-0.128c-0.66-2.295-1.061-4.631-1.222-6.972c-0.015-0.22-0.037-0.439-0.047-0.66
	c-0.004-0.079-0.003-0.159-0.006-0.238c-0.019-0.466-0.032-0.933-0.032-1.403C381.03,414.9,381.035,414.792,381.036,414.684z
	 M367.661,404.326c-0.002,0.008-0.003,0.016-0.005,0.024c-0.13,0.575-0.253,1.153-0.362,1.734c-0.021,0.113-0.039,0.227-0.059,0.34
	c-0.124,0.687-0.235,1.377-0.328,2.071c-0.067,0.49-0.131,0.98-0.183,1.472c-0.023,0.221-0.04,0.444-0.06,0.666
	c-0.05,0.543-0.091,1.087-0.122,1.632c-0.01,0.178-0.02,0.356-0.028,0.534c-0.03,0.653-0.048,1.306-0.051,1.96
	c0,0.059-0.004,0.118-0.005,0.178c0,0.022,0.001,0.043,0.001,0.064c0,0.76,0.015,1.521,0.051,2.281
	c0.005,0.099,0.014,0.197,0.019,0.296c0.025,0.471,0.051,0.943,0.09,1.414l-142.878-0.25c0.428-4.92,0.093-9.865-0.99-14.671
	L367.661,404.326z M84.856,107.05c-0.574-2.268-2.202-4.122-4.376-4.984L19.215,77.759c-1.822-0.723-3.252-2.111-4.029-3.91
	c-0.777-1.799-0.807-3.792-0.084-5.613c1.14-2.875,3.907-4.63,6.828-4.63c0.898,0,1.811,0.166,2.694,0.517l68.214,27.065
	c2.182,0.865,3.828,2.74,4.404,5.016l68.743,271.513c-0.451,0.096-0.899,0.204-1.347,0.313c-0.003,0.001-0.006,0.001-0.009,0.002
	c-1.459,0.354-2.898,0.775-4.313,1.263c-0.161,0.055-0.32,0.116-0.48,0.173c-0.49,0.175-0.978,0.357-1.462,0.548
	c-0.257,0.101-0.513,0.205-0.769,0.311c-0.379,0.157-0.754,0.32-1.129,0.487c-0.3,0.133-0.6,0.264-0.897,0.404
	c-0.293,0.138-0.582,0.285-0.872,0.428c-0.72,0.355-1.432,0.73-2.137,1.124c-0.128,0.072-0.258,0.138-0.385,0.211L84.856,107.05z
	 M199.611,391.048c2.727,2.736,4.872,5.834,6.451,9.137c0.139,0.29,0.273,0.583,0.403,0.876c0.096,0.217,0.191,0.435,0.282,0.653
	c0.1,0.238,0.196,0.476,0.29,0.716c0.116,0.298,0.229,0.597,0.336,0.897c0.059,0.163,0.116,0.326,0.172,0.49
	c0.136,0.4,0.265,0.801,0.385,1.204c0.021,0.069,0.042,0.139,0.063,0.208c3.3,11.343,0.477,24.103-8.465,33.014
	c-6.3,6.278-14.662,9.733-23.555,9.733c-0.02,0-0.041,0-0.06,0c-8.914-0.016-17.289-3.502-23.581-9.816
	c-12.989-13.035-12.952-34.207,0.083-47.195c0.124-0.123,0.254-0.239,0.379-0.36c0.016-0.015,0.034-0.028,0.05-0.044
	c6.048-5.822,14.002-9.128,22.397-9.31c0.011,0,0.022-0.002,0.033-0.003c0.232-0.005,0.463-0.017,0.695-0.017c0.02,0,0.041,0,0.06,0
	C184.945,381.248,193.319,384.734,199.611,391.048z"/>
<path d="M197.191,318.078c0.836,3.301,3.802,5.5,7.058,5.5c0.592,0,1.194-0.073,1.794-0.225c3.901-0.988,6.263-4.951,5.275-8.852
	l-12.733-50.29c-0.988-3.901-4.949-6.262-8.852-5.275c-3.901,0.988-6.263,4.951-5.275,8.852L197.191,318.078z"/>
<path d="M180.201,191.596c-0.988-3.901-4.947-6.264-8.852-5.275c-3.901,0.988-6.263,4.951-5.275,8.852l5.536,21.865
	c0.836,3.301,3.802,5.5,7.058,5.5c0.592,0,1.194-0.073,1.794-0.225c3.901-0.988,6.263-4.951,5.275-8.852L180.201,191.596z"/>
<path d="M260.398,186.277c-4.01,0.334-6.991,3.856-6.657,7.866l10.229,122.868c0.317,3.805,3.503,6.682,7.253,6.682
	c0.203,0,0.407-0.009,0.613-0.026c4.01-0.334,6.99-3.856,6.657-7.866l-10.229-122.868
	C267.93,188.923,264.411,185.942,260.398,186.277z"/>
<path d="M341.61,193.062l-10.659,122.832c-0.348,4.009,2.619,7.541,6.629,7.889c0.214,0.019,0.427,0.028,0.639,0.028
	c3.739,0,6.921-2.862,7.25-6.657l10.659-122.832c0.348-4.009-2.62-7.541-6.629-7.889
	C345.504,186.085,341.958,189.053,341.61,193.062z"/>
<path d="M403.375,323.698c0.608,0.156,1.218,0.231,1.818,0.231c3.247,0,6.208-2.186,7.052-5.475l31.547-122.795
	c1.002-3.897-1.346-7.869-5.244-8.87c-3.901-1.001-7.869,1.348-8.87,5.244l-31.547,122.795
	C397.129,318.726,399.477,322.697,403.375,323.698z"/>
<g>
</g>
<g>
</g>
<g>
</g>
<g>
</g>
<g>
</g>
<g>
</g>
<g>
</g>
<g>
</g>
<g>
</g>
<g>
</g>
<g>
</g>
<g>
</g>
<g>
</g>
<g>
</g>
<g>
</g>
</svg>
