<svg id="Capa_1" enable-background="new 0 0 512 512" height="512" viewBox="0 0 512 512" width="512" xmlns="http://www.w3.org/2000/svg"><g><path d="m495.002 343.247-20.449-79.905c-2.274-8.887-9.926-15.359-19.067-16.129l-68.478-5.766c-6.808-.573-12.998-4.175-16.86-9.81l-43.899-64.054c-8.962-13.077-23.796-20.894-39.65-20.894h-150.5c-30.849 0-58.349 19.441-68.638 48.523l-12.395 35.033c-1.884 5.324-5.746 9.717-10.785 12.267l-3.534 1.788c-10.745 5.437-17.766 16.2-18.413 28.224l-3.804 70.724h476.472z" fill="#eec06b"/><path d="m452.682 261.206 20.996 82.041h21.324l-20.449-79.905c-2.274-8.887-9.926-15.36-19.067-16.129l-16.614-1.399c6.721 2.531 11.968 8.191 13.81 15.392z" fill="#e9a52d"/><path d="m475.064 265.341h-20.062c-5.17 0-8.876 4.988-7.384 9.938l3.333 11.059c2.278 7.558 9.239 12.731 17.133 12.731h15.611z" fill="#d6e0f4"/><path d="m475.064 265.341h-20.062c-.423 0-.832.045-1.234.109l8.338 32.582c1.883.668 3.896 1.037 5.978 1.037h15.611z" fill="#b8c9ea"/><path d="m298.552 161.684 45.623 66.571c4.014 5.857 10.447 9.6 17.522 10.196l19.203 1.617c-4.317-1.626-8.089-4.544-10.753-8.431l-43.899-64.054c-8.962-13.077-23.797-20.894-39.65-20.894h-4.271c6.368 3.678 11.946 8.75 16.225 14.995z" fill="#e9a52d"/><path d="m161.725 113.586v33.102h99.674v-33.102c0-2.215-1.796-4.011-4.012-4.011h-91.651c-2.215 0-4.011 1.796-4.011 4.011z" fill="#d6e0f4"/><path d="m7.5 336.71v22.716c0 3.675 2.979 6.654 6.654 6.654h480.746c5.827 0 10.311-5.15 9.507-10.922l-2.342-16.826c-.66-4.744-4.717-8.275-9.507-8.275h-478.404c-3.675-.001-6.654 2.978-6.654 6.653z" fill="#d6e0f4"/><path d="m502.465 341.207c-1.745 2.24-4.459 3.712-7.565 3.712h-480.746c-3.675 0-6.654-2.979-6.654-6.654v21.162c0 3.675 2.979 6.654 6.654 6.654h480.746c5.827 0 10.311-5.15 9.507-10.922z" fill="#b8c9ea"/><g transform="matrix(.788 -.615 .615 .788 -194.271 143.675)"><ellipse cx="111.603" cy="354.086" fill="#514898" rx="48.34" ry="48.34"/><ellipse cx="111.604" cy="354.086" fill="#d5d9f2" rx="19.296" ry="19.296"/></g><g transform="matrix(.788 -.615 .615 .788 -136.769 310.76)"><ellipse cx="383.105" cy="354.086" fill="#514898" rx="48.34" ry="48.34"/><ellipse cx="383.105" cy="354.086" fill="#d5d9f2" rx="19.296" ry="19.296"/></g><path d="m102.507 236.564h272.238c-1.748-1.393-3.305-3.043-4.596-4.928l-39.139-57.11h-194.025c-10.475 0-20.315 5.344-25.737 14.306-2.534 4.189-4.67 8.677-6.349 13.423l-8.886 25.123c-1.585 4.484 1.74 9.186 6.494 9.186z" fill="#6a61b2"/><path d="m307.354 174.527 36.821 53.727c2.538 3.703 6.045 6.558 10.068 8.31h20.501c-.874-.696-1.701-1.455-2.468-2.278-.012-.013-.023-.028-.036-.041-.368-.397-.726-.805-1.067-1.231-1.023-1.271 1.222 1.859-40.164-58.488h-23.655z" fill="#514898"/><path d="m54.407 285.428 1.771-21.392c.426-5.146-3.636-9.558-8.799-9.558h-18.602c-3.785 5.18-6.087 11.418-6.443 18.045l-1.636 30.421h14.684c9.933 0 18.206-7.617 19.025-17.516z" fill="#e27f86"/><g><g><path d="m511.837 354.123-2.349-16.828c-.927-6.653-5.69-11.997-11.843-13.938l-15.829-61.876c-3.061-11.97-13.388-20.709-25.698-21.746l-68.472-5.759c-4.59-.391-8.713-2.788-11.31-6.577l-43.902-64.061c-10.366-15.122-27.501-24.15-45.835-24.15h-17.701v-25.604c0-6.348-5.164-11.512-11.511-11.512h-91.651c-6.347 0-11.511 5.164-11.511 11.512v25.604h-18.125c-23.17 0-45.212 10.006-60.474 27.452-2.728 3.118-2.411 7.856.706 10.584 3.118 2.728 7.856 2.412 10.583-.707 12.414-14.19 30.341-22.329 49.185-22.329h150.5c11.31 0 21.982 4.719 29.588 12.837h-179.204c-13.145 0-25.465 6.868-32.154 17.924-2.822 4.664-5.178 9.646-7.002 14.805l-8.886 25.123c-1.555 4.397-.875 9.296 1.817 13.104s7.085 6.082 11.748 6.082h269.789c4.155 2.732 8.973 4.424 14.085 4.859l68.479 5.76c2.909.245 5.585 1.385 7.738 3.157h-7.595c-4.86 0-9.312 2.238-12.21 6.14-2.899 3.902-3.758 8.809-2.354 13.462l3.333 11.058c3.256 10.807 13.026 18.067 24.314 18.067h9.784l4.091 15.992h-52.796c-10.073-14.67-26.958-24.314-46.059-24.314-19.1 0-35.985 9.644-46.057 24.314h-179.388c-10.073-14.67-26.958-24.314-46.058-24.314s-35.985 9.644-46.058 24.314h-38.391l.651-12.115h7.577c13.728 0 25.368-10.717 26.501-24.398l1.771-21.392c.375-4.537-1.178-9.059-4.261-12.408-2.295-2.493-5.31-4.191-8.578-4.898 5.226-3.509 9.191-8.585 11.327-14.608l9.88-27.93c1.381-3.905-.665-8.19-4.57-9.572s-8.191.664-9.572 4.57l-9.878 27.924c-1.25 3.527-3.775 6.398-7.113 8.088l-3.524 1.787c-5.763 2.916-10.553 7.192-14.405 12.14-.204.262-.397.532-.571.816-4.421 6.243-7.122 13.685-7.547 21.553l-2.718 50.604c-6.844.992-12.124 6.878-12.124 13.991v22.72c0 7.803 6.348 14.15 14.15 14.15h45.132c7.926 21.204 28.386 36.345 52.321 36.345 23.936 0 44.396-15.141 52.322-36.345h94.575c4.143 0 7.5-3.358 7.5-7.5s-3.357-7.5-7.5-7.5h-91.253c.119-1.484.197-2.98.197-4.495 0-5.751-.875-11.301-2.497-16.525h164.816c-1.622 5.225-2.497 10.775-2.497 16.525 0 1.514.078 3.01.197 4.495h-33.863c-4.143 0-7.5 3.358-7.5 7.5s3.357 7.5 7.5 7.5h37.183c7.926 21.204 28.386 36.345 52.321 36.345 23.936 0 44.396-15.141 52.323-36.345h59.473c4.946 0 9.647-2.139 12.896-5.869 3.248-3.73 4.722-8.68 4.041-13.588zm-342.612-237.048h84.673v22.115h-84.673zm93.69 64.952h64.143l32.235 47.037h-96.378zm-15 47.037h-71.269v-47.037h71.269zm-135.945-24.307c1.484-4.198 3.4-8.25 5.695-12.042 3.988-6.593 11.391-10.689 19.32-10.689h24.661v47.037h-58.273zm-65.037 80.053c-.494 5.963-5.567 10.635-11.551 10.635h-6.772l1.209-22.52c.21-3.889 1.299-7.614 3.091-10.947h14.468c.482 0 .797.233.978.429s.387.53.347 1.011zm-31.933 73.77v-21.02h43.261c-1.622 5.225-2.497 10.775-2.497 16.525 0 1.514.078 3.01.197 4.495zm96.603 36.345c-22.519 0-40.84-18.321-40.84-40.84s18.32-40.84 40.84-40.84 40.841 18.32 40.841 40.84-18.321 40.84-40.841 40.84zm356.481-103.357c-4.62 0-8.619-2.972-9.952-7.395l-3.333-11.059c-.017-.055-.03-.102.033-.188.063-.085.113-.085.17-.085h14.237l4.791 18.728h-5.946zm-84.98 103.357c-22.519 0-40.839-18.321-40.839-40.84s18.32-40.84 40.839-40.84c22.52 0 40.841 18.32 40.841 40.84s-18.321 40.84-40.841 40.84zm113.38-37.065c-.286.329-.794.72-1.584.72h-56.151c.119-1.484.197-2.98.197-4.495 0-5.751-.875-11.3-2.497-16.524l56.112-.001c1.038 0 1.929.776 2.072 1.807l2.349 16.823c.113.825-.264 1.4-.498 1.67z"/><path d="m111.604 327.29c-14.775 0-26.796 12.021-26.796 26.796s12.021 26.796 26.796 26.796 26.796-12.021 26.796-26.796-12.022-26.796-26.796-26.796zm0 38.591c-6.504 0-11.795-5.292-11.795-11.795s5.292-11.795 11.795-11.795c6.504 0 11.795 5.292 11.795 11.795s-5.292 11.795-11.795 11.795z"/><path d="m383.105 327.29c-14.775 0-26.796 12.021-26.796 26.796s12.021 26.796 26.796 26.796 26.796-12.021 26.796-26.796-12.02-26.796-26.796-26.796zm0 38.591c-6.504 0-11.796-5.292-11.796-11.795s5.292-11.795 11.796-11.795 11.796 5.292 11.796 11.795-5.292 11.795-11.796 11.795z"/></g></g></g></svg>