<svg id="Capa_1" enable-background="new 0 0 510.234 510.234" height="512" viewBox="0 0 510.234 510.234" width="512" xmlns="http://www.w3.org/2000/svg"><g><g><path d="m483.885 288.526c-.193 0-.35-.157-.35-.35v-6.22l-7.602-9.506v-34.954l7.602-14.82v-8.65c0-7.18-1.91-14.23-5.55-20.43l-31.39-53.5c-7.25-12.35-20.5-19.94-34.83-19.94h-177.47c-6.55 0-12.89 2.37-17.83 6.67l-110.21 95.88v134.44h387.77c4.811 0 8.71-3.9 8.71-8.71v-41.06c-.001-10.41-8.44-18.85-18.85-18.85z" fill="#f79595"/><g><path d="m106.255 222.706h-53.57c-16.112 0-30.246 8.447-38.244 21.146l4.448 4.456-2.6 20.801-8.784 4.987v74.39c0 4.78 3.87 8.66 8.66 8.66h90.09l56.586-20.697v-77.478z" fill="#f79595"/><path d="m106.255 283.339v73.807l49.623-18.15c-2.953-27.404-23.229-49.684-49.623-55.657z" fill="#f47c7c"/></g><path d="m92.091 281.749c-.459 0-.917.005-1.373.015-6.888.148-11.404-7.053-8.45-13.278 7.248-15.275 22.81-25.842 40.838-25.842h14.259l-31.109-19.938h-53.57c-16.115 0-30.25 8.444-38.248 21.142l4.452 4.46-2.6 20.801-8.784 4.987v74.39c0 4.78 3.87 8.66 8.66 8.66h61.761v-20.697h77.617c-4.593-30.906-31.289-54.7-63.453-54.7z" fill="#ee6161"/><path d="m123.105 242.644h83.718c13.954 0 27.297-5.722 36.915-15.831l96.147-101.049c3.017-2.626 6.559-4.521 10.348-5.608h-115.939c-6.55 0-12.89 2.37-17.83 6.67l-110.21 95.88v23.2c5.209-2.097 10.893-3.262 16.851-3.262z" fill="#f47c7c"/><g><g><path d="m502.734 327.016v21.42c0 4.81-3.9 8.71-8.71 8.71h-387.77-90.09c-4.79 0-8.66-3.88-8.66-8.66v-21.47z" fill="#ee6161"/><path d="m92.091 327.016h-84.586v21.47c0 4.78 3.87 8.66 8.66 8.66h75.926z" fill="#e94444"/></g><path d="m153.413 327.016h-36.478v30.13h38.317c.647-3.65 1.004-7.399 1.004-11.232 0-6.575-.998-12.92-2.843-18.898z" fill="#e94444"/><circle cx="92.091" cy="345.915" fill="#736572" r="44.166"/><path d="m420.723 281.749c-35.381 0-64.166 28.785-64.166 64.166 0 3.833.357 7.582 1.004 11.232h126.323c.647-3.65 1.004-7.399 1.004-11.232.001-35.381-28.784-64.166-64.165-64.166z" fill="#f47c7c"/><path d="m356.557 345.915c0 3.833.357 7.582 1.004 11.232h126.323c.647-3.65 1.004-7.399 1.004-11.232 0-6.575-.998-12.921-2.844-18.898h-122.643c-1.846 5.977-2.844 12.322-2.844 18.898z" fill="#e94444"/><circle cx="420.723" cy="345.915" fill="#736572" r="44.166"/><path d="m92.091 342.721c0-15.183 7.671-28.575 19.339-36.524-5.839-2.848-12.405-4.448-19.339-4.448-24.392 0-44.166 19.774-44.166 44.166s19.774 44.166 44.166 44.166c9.209 0 17.767-2.823 24.844-7.645-14.703-7.17-24.844-22.257-24.844-39.715z" fill="#615260"/><path d="m420.723 342.721c0-15.183 7.671-28.575 19.339-36.524-5.839-2.848-12.405-4.448-19.339-4.448-24.392 0-44.166 19.774-44.166 44.166s19.774 44.166 44.166 44.166c9.209 0 17.767-2.823 24.844-7.645-14.703-7.17-24.844-22.257-24.844-39.715z" fill="#615260"/><g id="XMLID_199_"><g><path d="m289.385 150.156h-52.14c-1.22 0-2.4.44-3.32 1.24l-78.807 68.563c-1.08.94-.416 2.717 1.017 2.717h133.251l16.912-7.176v-48.708z" fill="#d5eaff"/><path d="m303.482 164.024-14.097-13.867h-52.14c-1.22 0-2.4.44-3.32 1.24l-78.807 68.563c-1.08.94-.416 2.717 1.017 2.717h91.54z" fill="#b8ddff"/><path d="m411.824 150.156h-.06-92.37l-9.788 12.617v52.728l9.788 7.176h89.73c4.18 0 7.56-3.38 7.56-7.56v-60.08c.001-2.691-2.17-4.881-4.86-4.881z" fill="#d5eaff"/><path d="m289.384 150.156h30.01v72.52h-30.01z" fill="#f47c7c"/><path d="m289.385 150.156v28.683l27.291-28.683z" fill="#ee6161"/></g></g><g id="XMLID_206_"><g><g id="XMLID_207_"><g><path d="m46.094 248.276c2.74 2.74 4.43 6.52 4.43 10.7 0 8.35-6.77 15.12-15.13 15.12h-27.89v-6.2c0-8.84 2.54-17.09 6.93-24.05h20.96c4.18 0 7.96 1.69 10.7 4.43z" fill="#fedf30"/></g></g></g></g><g id="XMLID_208_"><g><path d="m478.193 240.318h-19.319l-6.129 11.998v21.41c0 4.54 3.69 8.23 8.24 8.23h22.55v-29.64z" fill="#e94444"/></g></g><path d="m92.091 360.08c-7.811 0-14.166-6.354-14.166-14.166s6.354-14.166 14.166-14.166 14.166 6.355 14.166 14.166-6.355 14.166-14.166 14.166z" fill="#f9f7f8"/><path d="m95.459 359.659c-2.17-5.216-3.368-10.936-3.368-16.938 0-3.763.474-7.416 1.36-10.903-.448-.043-.901-.069-1.36-.069-7.811 0-14.166 6.355-14.166 14.166s6.354 14.166 14.166 14.166c1.162-.001 2.286-.157 3.368-.422z" fill="#d7d0d6"/><path d="m420.723 360.08c-7.811 0-14.166-6.354-14.166-14.166s6.354-14.166 14.166-14.166 14.166 6.355 14.166 14.166-6.355 14.166-14.166 14.166z" fill="#f9f7f8"/><path d="m424.099 359.674c-2.17-5.216-3.376-10.952-3.376-16.953 0-3.763.465-7.416 1.352-10.904-.448-.043-.893-.068-1.352-.068-7.811 0-14.166 6.355-14.166 14.166s6.354 14.166 14.166 14.166c1.162-.001 2.294-.142 3.376-.407z" fill="#d7d0d6"/></g><path d="m483.534 222.676v29.64h-30.79v-21.4c0-4.55 3.69-8.24 8.24-8.24z" fill="#fdb441"/></g><g><path d="m92.091 324.249c-11.946 0-21.666 9.719-21.666 21.666 0 11.946 9.719 21.666 21.666 21.666s21.666-9.719 21.666-21.666c-.001-11.947-9.72-21.666-21.666-21.666zm0 28.331c-3.675 0-6.666-2.99-6.666-6.666s2.99-6.666 6.666-6.666 6.666 2.99 6.666 6.666c-.001 3.676-2.991 6.666-6.666 6.666z"/><path d="m420.723 324.249c-11.946 0-21.666 9.719-21.666 21.666 0 11.946 9.719 21.666 21.666 21.666s21.666-9.719 21.666-21.666-9.72-21.666-21.666-21.666zm0 28.331c-3.675 0-6.666-2.99-6.666-6.666s2.99-6.666 6.666-6.666 6.666 2.99 6.666 6.666-2.991 6.666-6.666 6.666z"/><path d="m491.039 282.009v-.051-67.928c0-8.511-2.277-16.889-6.584-24.229l-8.697-14.821c-2.097-3.573-6.693-4.771-10.264-2.672-3.572 2.096-4.769 6.692-2.672 10.264l8.697 14.821c2.958 5.041 4.521 10.793 4.521 16.638v1.149h-15.06c-8.677 0-15.736 7.059-15.736 15.736v42.806c0 8.677 7.059 15.736 15.736 15.736h15.124c.461 3.7 3.611 6.565 7.436 6.565h.35c6.256 0 11.345 5.089 11.345 11.345v12.152h-30.121c-9.024-15.118-25.541-25.27-44.391-25.27s-35.367 10.152-44.391 25.27h-75.362l9.369-20.896c1.031-2.299 1.554-4.744 1.554-7.265v-61.179h50.129c4.142 0 7.5-3.358 7.5-7.5s-3.358-7.5-7.5-7.5h-35.125v-57.525h82.287l-.061 57.525h-15.139c-4.142 0-7.5 3.358-7.5 7.5s3.358 7.5 7.5 7.5h15.139c8.306 0 15.064-6.758 15.064-15.064v-60.084c0-6.809-5.539-12.361-12.418-12.377h-174.524c-3.029 0-5.956 1.095-8.24 3.083l-81.931 71.284c-2.36 2.054-3.198 5.356-2.102 8.286s3.896 4.872 7.024 4.872h144.895v61.179c0 .392-.081.771-.241 1.128l-12.12 27.033h-85.493c-4.142 0-7.5 3.358-7.5 7.5s3.358 7.5 7.5 7.5h171.301c-.83 3.669-1.282 7.479-1.282 11.396 0 1.257.061 2.499.15 3.734h-225.6c.089-1.235.15-2.477.15-3.734 0-3.916-.453-7.727-1.282-11.396h24.602c4.142 0 7.5-3.358 7.5-7.5s-3.358-7.5-7.5-7.5h-30.595c-5.321-8.915-13.249-16.094-22.725-20.491v-72.902l107.63-93.644c3.579-3.114 8.163-4.829 12.907-4.829h177.475c11.611 0 22.475 6.221 28.352 16.235l6.504 11.084c2.096 3.572 6.691 4.768 10.265 2.673 3.572-2.096 4.769-6.692 2.673-10.265l-6.504-11.084c-8.559-14.584-24.38-23.644-41.289-23.644h-177.475c-8.364 0-16.445 3.023-22.753 8.513l-108.09 94.044h-50.764c-29.052.001-52.687 23.636-52.687 52.688v80.587c0 8.913 7.251 16.164 16.164 16.164h27.792c7.519 19.251 26.254 32.932 48.135 32.932s40.616-13.68 48.135-32.932h232.362c7.519 19.251 26.254 32.932 48.135 32.932 21.882 0 40.617-13.68 48.136-32.932h25.163c8.94 0 16.213-7.273 16.213-16.212v-41.069c-.001-12.05-8.132-22.236-19.196-25.359zm-30.06-51.83h15.06v14.639h-15.795v-13.903c0-.405.33-.736.735-.736zm-.735 43.543v-13.903h15.795v14.639h-15.06c-.405 0-.735-.33-.735-.736zm-163.356-116.068h15.009v57.525h-15.009zm-58.727 0h43.728v57.525h-109.845zm-139.405 72.557v64.483c-2.184-.283-4.406-.444-6.666-.444-18.865 0-35.394 10.169-44.413 25.308-.248-.025-.499-.038-.753-.038h-31.924v-37.918h20.398c12.477 0 22.627-10.151 22.627-22.628s-10.15-22.627-22.627-22.627h-3.284c5.92-3.873 12.985-6.135 20.573-6.135h46.069zm-63.358 21.134c4.206 0 7.627 3.422 7.627 7.627 0 4.206-3.422 7.628-7.627 7.628h-20.365c.186-5.456 1.531-10.622 3.806-15.255zm-19.234 98.304c-.642 0-1.164-.522-1.164-1.164v-13.966h26.707c-.83 3.669-1.282 7.479-1.282 11.396 0 1.257.061 2.499.15 3.734zm75.927 32.931c-20.217 0-36.666-16.448-36.666-36.666s16.448-36.666 36.666-36.666 36.666 16.448 36.666 36.666-16.449 36.666-36.666 36.666zm328.632 0c-20.217 0-36.666-16.448-36.666-36.666s16.448-36.666 36.666-36.666 36.666 16.448 36.666 36.666-16.449 36.666-36.666 36.666zm73.298-32.931h-21.783c.089-1.235.15-2.477.15-3.734 0-3.916-.453-7.727-1.282-11.396h24.128v13.917c0 .669-.544 1.213-1.213 1.213z"/><path d="m277.55 256.916c4.142 0 7.5-3.358 7.5-7.5s-3.358-7.5-7.5-7.5h-14.413c-4.142 0-7.5 3.358-7.5 7.5s3.358 7.5 7.5 7.5z"/></g></g></svg>